<svg xmlns="http://www.w3.org/2000/svg" version="1.0" width="4096" height="4096" viewBox="22.5 0 182 182" preserveAspectRatio="xMidYMid meet" id="svg87">
  <defs id="defs91" />
  <g transform="matrix(0.1,0,0,-0.1,0,988)" fill="#000000" stroke="none" id="g85">
    <circle cx="1135" cy="9621.84" r="237.5" fill="#f05a25" id="path11" /><path d="m 713.27587,9344.3408 c -0.6994,-50.0096 0.3497,-1262.4794 1.0492,-1263.1789 0.3497,-0.3497 91.9756,33.5729 203.5354,75.539 l 202.83603,75.8886 1.0492,481.211 0.6994,480.8613 -25.1796,9.4423 c -13.9887,5.2458 -50.0096,18.8848 -79.7356,30.0757 -208.08173,78.6864 -304.25403,113.6581 -304.25403,110.161 z" id="path13" style="fill:#f05a25;stroke-width:1" />
    <path d="m 1556.7241 9344.3408 c 0.6994 -50.0096 -0.3497 -1262.4794 -1.0492 -1263.1789 -0.3497 -0.3497 -91.9756 33.5729 -203.5354 75.5390 l -202.8360 75.8886 -1.0492 481.2110 -0.6994 480.8613 25.1796 9.4423 c 13.9887 5.2458 50.0096 18.8848 79.7356 30.0757 208.0817 78.6864 304.2540 113.6581 304.2540 110.1610 z" id="path15" style="fill:#f05a25;stroke-width:1" />
    <path d="m 279.62647,8712.7513 c 0,-347.9687 0.6994,-632.9882 1.7486,-632.9882 3.8469,0 98.2705,36.3706 102.4671,39.518 3.1475,2.7978 4.1966,124.4994 3.4972,596.268 l -1.0491,593.1205 -26.2288,10.1418 c -37.0701,13.9887 -74.1401,26.9282 -77.6373,26.9282 -1.3988,0 -2.7977,-284.6698 -2.7977,-632.9883 z" id="path17" style="fill:#ffcb04;stroke-width:1" />
    <path d="m 405.52467,8712.7513 c 0,-347.9687 0.6994,-632.9882 1.3989,-632.9882 0.6994,0 19.9339,6.9943 43.0152,15.7372 22.7316,8.743 48.261,18.5351 57.0039,21.6825 8.7429,2.7978 17.8356,6.9944 20.2836,8.7429 3.1475,2.7978 4.1966,125.1988 4.1966,589.9731 v 586.1262 l -58.7525,22.0321 c -32.174,11.8904 -60.5011,21.6825 -62.9491,21.6825 -3.1474,0 -4.1966,-137.4389 -4.1966,-632.9883 z" id="path19" style="fill:#f9a61b;stroke-width:1" />
    <path d="m 548.90877,8712.7513 c 0,-347.9687 1.0491,-632.9882 2.7977,-632.9882 1.3989,0 33.2232,11.8904 70.6429,25.879 l 68.1949,25.8791 1.0491,579.8313 c 0.3498,356.0122 -0.6994,581.2301 -2.448,582.9787 -4.1966,4.1966 -128.6959,51.4084 -135.3406,51.4084 -4.1966,0 -4.896,-99.3197 -4.896,-632.9883 z" id="path21" style="fill:#f48120;stroke-width:1" />
    <path d="m 1721.0912 8712.7513 c 0 -347.9687 -1.0491 -632.9882 -2.7977 -632.9882 -1.3989 0 -33.2232 11.8904 -70.6429 25.8790 l -68.1949 25.8791 -1.0491 579.8313 c -0.3498 356.0122 0.6994 581.2301 2.4480 582.9787 4.1966 4.1966 128.6959 51.4084 135.3406 51.4084 4.1966 0 4.8960 -99.3197 4.8960 -632.9883 z" id="path23" style="fill:#f48120;stroke-width:1" />
    <path d="m 1864.4753 8712.7513 c 0 -347.9687 -0.6994 -632.9882 -1.3989 -632.9882 -0.6994 0 -19.9339 6.9943 -43.0152 15.7372 -22.7316 8.7430 -48.2610 18.5351 -57.0039 21.6825 -8.7429 2.7978 -17.8356 6.9944 -20.2836 8.7429 -3.1475 2.7978 -4.1966 125.1988 -4.1966 589.9731 v 586.1262 l 58.7525 22.0321 c 32.1740 11.8904 60.5011 21.6825 62.9491 21.6825 3.1474 0 4.1966 -137.4389 4.1966 -632.9883 z" id="path25" style="fill:#f9a61b;stroke-width:1" />
    <path d="m 1990.3735 8712.7513 c 0 -347.9687 -0.6994 -632.9882 -1.7486 -632.9882 -3.8469 0 -98.2705 36.3706 -102.4671 39.5180 -3.1475 2.7978 -4.1966 124.4994 -3.4972 596.2680 l 1.0491 593.1205 26.2288 10.1418 c 37.0701 13.9887 74.1401 26.9282 77.6373 26.9282 1.3988 0 2.7977 -284.6698 2.7977 -632.9883 z" id="path27" style="fill:#ffcb04;stroke-width:1" />
  </g>
</svg>